<svg id="Слой_1" data-name="Слой 1" xmlns="http://www.w3.org/2000/svg" viewBox="0 0 23.67 31.46"><defs><style>.cls-1{fill:#005199;}</style></defs><title>icon__file</title><path class="cls-1" d="M23.67,31.46H0V6.36A6.38,6.38,0,0,1,6.36,0H23.67ZM1,30.46H22.67V1H6.36A5.37,5.37,0,0,0,1,6.36Z"/><path class="cls-1" d="M3.05,15.73v-6H6.94v.94H4.12V12.3H6.77v.9H4.12v2.53Z"/><path class="cls-1" d="M7.92,15.73v-6H9v6Z"/><path class="cls-1" d="M10.32,15.73v-6h1.07v5.07H14v1Z"/><path class="cls-1" d="M14.66,15.73v-6h4v.94H15.73v1.53H18.5v.9H15.73v1.7H18.8v1Z"/></svg>